<?xml version="1.0" encoding="utf-8"?>
<!-- Generator: Adobe Illustrator 15.1.0, SVG Export Plug-In . SVG Version: 6.00 Build 0)  -->
<!DOCTYPE svg PUBLIC "-//W3C//DTD SVG 1.1//EN" "http://www.w3.org/Graphics/SVG/1.1/DTD/svg11.dtd">
<svg version="1.1" id="Layer_3" xmlns="http://www.w3.org/2000/svg" xmlns:xlink="http://www.w3.org/1999/xlink" x="0px" y="0px"
	 width="600px" height="600px" viewBox="0 0 600 600" enable-background="new 0 0 600 600" xml:space="preserve">
<g>
	<g>
		<path fill="#FFFFFF" d="M300,327.057c8.648,0,16.216-3.078,22.705-9.236l162.416-127.709c6.154-6.153,9.232-13.638,9.232-22.456
			c0-8.812-3.078-16.3-9.232-22.455l-18.711-18.962c-6.482-6.155-14.055-9.232-22.703-9.232c-8.816,0-16.297,3.078-22.451,9.232
			l-121.254,86.299l-121.006-86.295c-6.484-6.156-14.055-9.233-22.704-9.233c-8.815,0-16.296,3.078-22.451,9.233l-18.715,18.961
			c-6.317,5.99-9.479,13.471-9.479,22.455c0,8.985,3.159,16.466,9.479,22.456L277.545,317.82
			C283.699,323.979,291.185,327.059,300,327.057z"/>
	</g>
	<g>
		<path fill="#FFFFFF" d="M300,482.994c8.648,0,16.216-3.08,22.705-9.236l162.416-127.711c6.154-6.152,9.232-13.639,9.232-22.455
			c0-8.812-3.078-16.301-9.232-22.455l-18.711-18.962c-6.482-6.154-14.055-9.231-22.703-9.231c-8.816,0-16.297,3.077-22.451,9.231
			l-121.254,86.3L178.996,282.18c-6.484-6.157-14.055-9.233-22.704-9.233c-8.815,0-16.296,3.077-22.451,9.233l-18.715,18.96
			c-6.317,5.99-9.479,13.471-9.479,22.455s3.159,16.465,9.479,22.455l162.418,127.707C283.699,479.914,291.185,482.996,300,482.994z
			"/>
	</g>
</g>
</svg>
