<?xml version="1.0" encoding="utf-8"?>
<!-- Generator: Adobe Illustrator 15.1.0, SVG Export Plug-In . SVG Version: 6.00 Build 0)  -->
<!DOCTYPE svg PUBLIC "-//W3C//DTD SVG 1.1//EN" "http://www.w3.org/Graphics/SVG/1.1/DTD/svg11.dtd">
<svg version="1.1" id="Layer_2" xmlns="http://www.w3.org/2000/svg" xmlns:xlink="http://www.w3.org/1999/xlink" x="0px" y="0px"
	 width="100px" height="100px" viewBox="0 0 100 100" enable-background="new 0 0 100 100" xml:space="preserve">
<path fill="#FFFFFF" d="M40.334,21h-4.297v8.593h4.297V21z M63.963,31.741h-4.297v4.296h4.297V31.741z M40.334,31.741h-4.297v4.296
	h4.297V31.741z M65.978,27.444l0.134,10.741h-8.593V27.444H42.481v10.741H33.89V27.444h-6.445V79h45.111V27.444H65.978z
	 M40.334,72.422H33.89v-6.444h6.444V72.422z M40.334,63.829H33.89v-6.444h6.444V63.829z M40.334,55.236H33.89v-6.443h6.444V55.236z
	 M48.925,72.422h-6.443v-6.444h6.443V72.422z M48.925,63.829h-6.443v-6.444h6.443V63.829z M48.925,55.236h-6.443v-6.443h6.443
	V55.236z M57.519,72.422h-6.445v-6.444h6.445V72.422z M57.519,63.829h-6.445v-6.444h6.445V63.829z M57.519,55.236h-6.445v-6.443
	h6.445V55.236z M66.111,72.422h-6.445v-6.444h6.445V72.422z M66.111,63.829h-6.445v-6.444h6.445V63.829z M66.111,55.236h-6.445
	v-6.443h6.445V55.236z M63.963,21h-4.297v8.593h4.297V21z"/>
</svg>
