<?xml version="1.0" encoding="utf-8"?>
<!-- Generator: Adobe Illustrator 15.1.0, SVG Export Plug-In . SVG Version: 6.00 Build 0)  -->
<!DOCTYPE svg PUBLIC "-//W3C//DTD SVG 1.1//EN" "http://www.w3.org/Graphics/SVG/1.1/DTD/svg11.dtd">
<svg version="1.1" id="Layer_3" xmlns="http://www.w3.org/2000/svg" xmlns:xlink="http://www.w3.org/1999/xlink" x="0px" y="0px"
	 width="600px" height="600px" viewBox="0 0 600 600" enable-background="new 0 0 600 600" xml:space="preserve">
<g>
	<path fill="#FFFEFD" d="M319.828,399.992l143.43-143.584c5.556-5.324,8.333-11.882,8.333-19.829s-2.777-14.505-8.333-19.829
		l-16.511-16.743c-5.4-5.401-12.037-8.178-19.829-8.178c-7.638,0-14.351,2.7-20.061,8.178L300,307.021L192.987,200.008
		c-5.4-5.401-12.036-8.178-19.829-8.178c-7.638,0-14.351,2.7-20.06,8.178l-16.511,16.743c-5.401,5.401-8.179,12.036-8.179,19.829
		s2.701,14.428,8.179,19.829L279.94,399.992c5.709,5.4,12.422,8.178,20.06,8.178C307.793,408.17,314.428,405.469,319.828,399.992z"
		/>
</g>
</svg>
