<?xml version="1.0" encoding="utf-8"?>
<!-- Generator: Adobe Illustrator 15.1.0, SVG Export Plug-In . SVG Version: 6.00 Build 0)  -->
<!DOCTYPE svg PUBLIC "-//W3C//DTD SVG 1.1//EN" "http://www.w3.org/Graphics/SVG/1.1/DTD/svg11.dtd">
<svg version="1.1" id="Layer_3" xmlns="http://www.w3.org/2000/svg" xmlns:xlink="http://www.w3.org/1999/xlink" x="0px" y="0px"
	 width="600px" height="600px" viewBox="0 0 600 600" enable-background="new 0 0 600 600" xml:space="preserve">
<g>
	<g>
		<path fill="#FFFFFF" d="M273.076,300c0,8.607,3.064,16.136,9.191,22.593L409.35,484.213c6.123,6.125,13.572,9.188,22.346,9.188
			c8.77,0,16.221-3.062,22.346-9.188l18.869-18.619c6.123-6.449,9.186-13.986,9.186-22.59c0-8.775-3.062-16.219-9.186-22.344
			l-85.877-120.659l85.873-120.412c6.125-6.453,9.188-13.986,9.188-22.592c0-8.772-3.062-16.217-9.188-22.341l-18.869-18.623
			c-5.961-6.286-13.404-9.433-22.344-9.433c-8.941,0-16.387,3.144-22.346,9.433L282.267,277.655
			C276.14,283.779,273.074,291.228,273.076,300z"/>
	</g>
	<g>
		<path fill="#FFFFFF" d="M117.904,300c0,8.607,3.063,16.136,9.191,22.593l127.083,161.619c6.123,6.125,13.571,9.188,22.346,9.188
			c8.769,0,16.221-3.062,22.345-9.188l18.87-18.619c6.125-6.449,9.186-13.986,9.186-22.59c0-8.775-3.061-16.219-9.186-22.344
			l-85.877-120.659l85.872-120.412c6.127-6.453,9.188-13.986,9.188-22.592c0-8.772-3.061-16.217-9.188-22.341l-18.867-18.623
			c-5.961-6.286-13.406-9.433-22.345-9.433c-8.94,0-16.385,3.144-22.346,9.433l-127.08,161.622
			C120.967,283.779,117.902,291.228,117.904,300z"/>
	</g>
</g>
</svg>
