<?xml version="1.0" encoding="utf-8"?>
<!-- Generator: Adobe Illustrator 15.1.0, SVG Export Plug-In . SVG Version: 6.00 Build 0)  -->
<!DOCTYPE svg PUBLIC "-//W3C//DTD SVG 1.1//EN" "http://www.w3.org/Graphics/SVG/1.1/DTD/svg11.dtd">
<svg version="1.1" id="Capa_1" xmlns="http://www.w3.org/2000/svg" xmlns:xlink="http://www.w3.org/1999/xlink" x="0px" y="0px"
	 width="135.869px" height="91.764px" viewBox="0 0 135.869 91.764" enable-background="new 0 0 135.869 91.764"
	 xml:space="preserve">
<g>
	<path d="M47.935,89.764c1.634,0,3.065-0.582,4.292-1.746l30.701-24.14c1.163-1.164,1.745-2.578,1.745-4.246
		c0-1.665-0.582-3.08-1.745-4.244l-3.536-3.584c-1.227-1.164-2.657-1.745-4.292-1.745c-1.667,0-3.081,0.581-4.244,1.745
		l-22.92,16.312L25.062,51.805c-1.226-1.164-2.657-1.745-4.292-1.745c-1.666,0-3.08,0.581-4.244,1.745l-3.538,3.584
		c-1.194,1.132-1.792,2.546-1.792,4.245c0,1.697,0.597,3.111,1.792,4.244l30.702,24.14C44.854,89.182,46.269,89.764,47.935,89.764z"
		/>
</g>
<g>
	<path d="M43.69,2.746l-30.702,24.14c-1.195,1.133-1.792,2.547-1.792,4.244c0,1.699,0.598,3.113,1.792,4.245l3.538,3.584
		c1.164,1.164,2.578,1.745,4.244,1.745c1.635,0,3.066-0.581,4.292-1.745l22.873-16.312l22.92,16.312
		c1.163,1.164,2.577,1.745,4.244,1.745c1.635,0,3.065-0.581,4.292-1.745l3.536-3.584c1.163-1.164,1.745-2.579,1.745-4.244
		c0-1.668-0.582-3.082-1.745-4.246L52.227,2.746C51,1.582,49.569,1,47.935,1C46.269,1,44.854,1.582,43.69,2.746z"/>
</g>
</svg>
