<?xml version="1.0" encoding="utf-8"?>
<!-- Generator: Adobe Illustrator 15.1.0, SVG Export Plug-In . SVG Version: 6.00 Build 0)  -->
<!DOCTYPE svg PUBLIC "-//W3C//DTD SVG 1.1//EN" "http://www.w3.org/Graphics/SVG/1.1/DTD/svg11.dtd">
<svg version="1.1" id="Layer_3" xmlns="http://www.w3.org/2000/svg" xmlns:xlink="http://www.w3.org/1999/xlink" x="0px" y="0px"
	 width="600px" height="600px" viewBox="0 0 600 600" enable-background="new 0 0 600 600" xml:space="preserve">
<g>
	<g>
		<path fill="#FFFFFF" d="M318.005,277.313l-129.022-164.09c-6.051-6.385-13.608-9.577-22.687-9.577
			c-9.076,0-16.635,3.195-22.686,9.577l-19.156,18.907c-6.22,6.218-9.329,13.776-9.329,22.682c0,8.738,3.109,16.386,9.329,22.938
			l87.183,122.251l-87.188,122.502c-6.217,6.219-9.327,13.775-9.327,22.684c0,8.736,3.109,16.387,9.327,22.936l19.157,18.904
			c6.218,6.217,13.783,9.326,22.687,9.326c8.908,0,16.471-3.109,22.687-9.326l129.025-164.09c6.221-6.555,9.332-14.199,9.332-22.937
			C327.338,291.094,324.226,283.531,318.005,277.313z"/>
	</g>
	<g>
		<path fill="#FFFFFF" d="M475.547,277.313l-129.021-164.09c-6.051-6.385-13.609-9.577-22.687-9.577
			c-9.076,0-16.635,3.195-22.687,9.577l-19.155,18.907c-6.221,6.218-9.328,13.776-9.328,22.682c0,8.738,3.107,16.386,9.328,22.938
			l87.184,122.251l-87.189,122.502c-6.218,6.219-9.326,13.775-9.326,22.684c0,8.736,3.108,16.387,9.326,22.936l19.158,18.904
			c6.218,6.217,13.783,9.326,22.686,9.326c8.909,0,16.471-3.109,22.688-9.326l129.024-164.09c6.222-6.555,9.331-14.199,9.331-22.937
			C484.88,291.094,481.769,283.531,475.547,277.313z"/>
	</g>
</g>
</svg>
