<?xml version="1.0" encoding="utf-8"?>
<!-- Generator: Adobe Illustrator 15.1.0, SVG Export Plug-In . SVG Version: 6.00 Build 0)  -->
<!DOCTYPE svg PUBLIC "-//W3C//DTD SVG 1.1//EN" "http://www.w3.org/Graphics/SVG/1.1/DTD/svg11.dtd">
<svg version="1.1" id="Layer_3" xmlns="http://www.w3.org/2000/svg" xmlns:xlink="http://www.w3.org/1999/xlink" x="0px" y="0px"
	 width="600px" height="600px" viewBox="0 0 600 600" enable-background="new 0 0 600 600" xml:space="preserve">
<g>
	<g>
		<path fill="#FFFFFF" d="M300,273.192c-8.569,0-16.066,3.051-22.495,9.152l-160.92,126.533c-6.098,6.096-9.147,13.512-9.147,22.25
			c0,8.73,3.049,16.148,9.147,22.248l18.539,18.787c6.422,6.098,13.926,9.146,22.493,9.146c8.736,0,16.147-3.051,22.246-9.146
			l120.137-85.506l119.89,85.5c6.426,6.1,13.926,9.148,22.496,9.148c8.732,0,16.146-3.049,22.244-9.148l18.541-18.785
			c6.26-5.936,9.393-13.348,9.393-22.248c0-8.902-3.131-16.314-9.393-22.25L322.248,282.344
			C316.15,276.243,308.734,273.19,300,273.192z"/>
	</g>
	<g>
		<path fill="#FFFFFF" d="M300,118.692c-8.569,0-16.066,3.05-22.495,9.151l-160.92,126.533c-6.098,6.096-9.147,13.513-9.147,22.249
			c0,8.73,3.049,16.15,9.147,22.248l18.539,18.789c6.422,6.098,13.926,9.145,22.493,9.145c8.736,0,16.147-3.047,22.246-9.145
			l120.137-85.506l119.89,85.5c6.426,6.1,13.926,9.148,22.496,9.148c8.732,0,16.146-3.049,22.244-9.148l18.541-18.786
			c6.26-5.935,9.393-13.347,9.393-22.248c0-8.902-3.131-16.314-9.393-22.249l-160.922-126.53
			C316.15,121.742,308.734,118.69,300,118.692z"/>
	</g>
</g>
</svg>
