<?xml version="1.0" encoding="utf-8"?>
<!-- Generator: Adobe Illustrator 15.1.0, SVG Export Plug-In . SVG Version: 6.00 Build 0)  -->
<!DOCTYPE svg PUBLIC "-//W3C//DTD SVG 1.1//EN" "http://www.w3.org/Graphics/SVG/1.1/DTD/svg11.dtd">
<svg version="1.1" id="Layer_3" xmlns="http://www.w3.org/2000/svg" xmlns:xlink="http://www.w3.org/1999/xlink" x="0px" y="0px"
	 width="600px" height="600px" viewBox="0 0 600 600" enable-background="new 0 0 600 600" xml:space="preserve">
<g>
	<path fill="#FFFFFF" d="M278.261,190.368L121.002,347.795c-6.091,5.838-9.136,13.027-9.136,21.74s3.045,15.904,9.136,21.74
		l18.104,18.357c5.921,5.922,13.196,8.967,21.74,8.967c8.374,0,15.734-2.961,21.994-8.967L300,292.302l117.33,117.331
		c5.921,5.92,13.197,8.967,21.74,8.967c8.375,0,15.734-2.961,21.994-8.967l18.104-18.357c5.921-5.922,8.966-13.195,8.966-21.74
		c0-8.543-2.961-15.818-8.966-21.74L321.994,190.368c-6.26-5.921-13.619-8.967-21.994-8.967
		C291.456,181.401,284.182,184.362,278.261,190.368z"/>
</g>
</svg>
