<?xml version="1.0" encoding="utf-8"?>
<!-- Generator: Adobe Illustrator 15.1.0, SVG Export Plug-In . SVG Version: 6.00 Build 0)  -->
<!DOCTYPE svg PUBLIC "-//W3C//DTD SVG 1.1//EN" "http://www.w3.org/Graphics/SVG/1.1/DTD/svg11.dtd">
<svg version="1.1" id="Layer_1" xmlns="http://www.w3.org/2000/svg" xmlns:xlink="http://www.w3.org/1999/xlink" x="0px" y="0px"
	 width="237px" height="62px" viewBox="0 0 237 62" enable-background="new 0 0 237 62" xml:space="preserve">
<g>
	<rect y="20" fill="#0071BC" width="7" height="42"/>
	<rect x="10" y="14" fill="#0071BC" width="7" height="48"/>
	<rect x="20" y="27" fill="#0071BC" width="7" height="35"/>
	<rect x="30" y="30" fill="#0071BC" width="7" height="32"/>
	<rect x="40" y="7" fill="#0071BC" width="7" height="55"/>
	<rect x="50" fill="#0071BC" width="7" height="62"/>
	<rect x="60" y="13" fill="#0071BC" width="7" height="49"/>
	<rect x="70" y="20" fill="#0071BC" width="7" height="42"/>
	<rect x="80" y="46" fill="#0071BC" width="7" height="16"/>
	<rect x="90" y="42" fill="#0071BC" width="7" height="20"/>
	<rect x="100" y="14" fill="#0071BC" width="7" height="48"/>
	<rect x="110" y="7" fill="#0071BC" width="7" height="55"/>
	<rect x="120" fill="#0071BC" width="7" height="62"/>
	<rect x="130" y="23" fill="#0071BC" width="7" height="39"/>
	<rect x="140" y="23" fill="#0071BC" width="7" height="39"/>
	<rect x="150" y="40" fill="#0071BC" width="7" height="22"/>
	<rect x="160" y="20" fill="#0071BC" width="7" height="42"/>
	<rect x="170" y="46" fill="#0071BC" width="7" height="16"/>
	<rect x="180" y="42" fill="#0071BC" width="7" height="20"/>
	<rect x="190" y="14" fill="#0071BC" width="7" height="48"/>
	<rect x="200" y="7" fill="#0071BC" width="7" height="55"/>
	<rect x="210" y="20" fill="#0071BC" width="7" height="42"/>
	<rect x="220" y="14" fill="#0071BC" width="7" height="48"/>
	<rect x="230" y="27" fill="#0071BC" width="7" height="35"/>
</g>
</svg>
