<?xml version="1.0" encoding="utf-8"?>
<!-- Generator: Adobe Illustrator 15.1.0, SVG Export Plug-In . SVG Version: 6.00 Build 0)  -->
<!DOCTYPE svg PUBLIC "-//W3C//DTD SVG 1.1//EN" "http://www.w3.org/Graphics/SVG/1.1/DTD/svg11.dtd">
<svg version="1.1" id="Layer_1" xmlns="http://www.w3.org/2000/svg" xmlns:xlink="http://www.w3.org/1999/xlink" x="0px" y="0px"
	 width="704px" height="226.5px" viewBox="0 0 704 226.5" enable-background="new 0 0 704 226.5" xml:space="preserve">
<g>
	<rect fill="#2E8540" width="20" height="201"/>
	<rect x="22" y="119" fill="#CD2026" width="20" height="82"/>
	<rect x="44" y="65" fill="#00A6D2" width="20" height="136"/>
	<rect x="80" y="138" fill="#2E8540" width="20" height="63"/>
	<rect x="102" y="65" fill="#CD2026" width="20" height="136"/>
	<rect x="124" y="34.5" fill="#00A6D2" width="20" height="166.5"/>
	<rect x="160" y="27" fill="#2E8540" width="20" height="174"/>
	<rect x="182" y="13" fill="#CD2026" width="20" height="188"/>
	<rect x="204" y="89.5" fill="#00A6D2" width="20" height="111.5"/>
	<rect x="240" y="56" fill="#2E8540" width="20" height="145"/>
	<rect x="262" y="80" fill="#CD2026" width="20" height="121"/>
	<rect x="284" fill="#00A6D2" width="20" height="201"/>
	<rect x="320" y="56" fill="#2E8540" width="20" height="145"/>
	<rect x="342" y="13" fill="#CD2026" width="20" height="188"/>
	<rect x="364" fill="#00A6D2" width="20" height="201"/>
	<rect x="400" y="27" fill="#2E8540" width="20" height="174"/>
	<rect x="422" y="110.729" fill="#CD2026" width="20" height="90.271"/>
	<rect x="444" y="104.487" fill="#00A6D2" width="20" height="96.513"/>
	<rect x="480" y="27" fill="#2E8540" width="20" height="174"/>
	<rect x="502" y="44" fill="#CD2026" width="20" height="157"/>
	<rect x="524" y="104.487" fill="#00A6D2" width="20" height="96.513"/>
	<rect x="560" fill="#2E8540" width="20" height="201"/>
	<rect x="582" y="119" fill="#CD2026" width="20" height="82"/>
	<rect x="604" y="65" fill="#00A6D2" width="20" height="136"/>
	<rect x="640" y="153" fill="#2E8540" width="20" height="48"/>
	<rect x="662" y="44" fill="#CD2026" width="20" height="157"/>
	<rect x="684" y="18.487" fill="#00A6D2" width="20" height="182.513"/>
	<g>
		<path fill="#5B616B" d="M20.875,221.016l0.961-0.672c0.234,0.417,0.501,0.718,0.801,0.902c0.299,0.186,0.637,0.277,1.012,0.277
			c0.567,0,0.989-0.173,1.266-0.52c0.276-0.346,0.414-0.92,0.414-1.723v-7.273h1.328v7.406c0,0.448-0.056,0.871-0.166,1.27
			c-0.111,0.398-0.279,0.748-0.506,1.047c-0.227,0.3-0.524,0.535-0.893,0.707s-0.808,0.258-1.318,0.258
			C22.461,222.695,21.495,222.136,20.875,221.016z"/>
		<path fill="#5B616B" d="M28.801,220.488c0-0.854,0.381-1.506,1.145-1.959c0.763-0.451,1.975-0.77,3.637-0.951
			c0-0.248-0.023-0.49-0.07-0.728s-0.132-0.448-0.254-0.632c-0.123-0.186-0.285-0.334-0.488-0.447s-0.466-0.17-0.789-0.17
			c-0.458,0-0.882,0.087-1.27,0.261c-0.388,0.175-0.738,0.369-1.051,0.585l-0.523-0.923c0.364-0.231,0.807-0.454,1.328-0.67
			c0.521-0.216,1.096-0.323,1.727-0.323c0.953,0,1.645,0.291,2.074,0.871c0.43,0.581,0.645,1.358,0.645,2.332v4.766h-1.086
			l-0.133-0.928h-0.026c-0.376,0.307-0.779,0.57-1.209,0.791c-0.431,0.222-0.886,0.332-1.366,0.332
			c-0.662,0-1.208-0.192-1.641-0.577C29.017,221.733,28.801,221.189,28.801,220.488z M30.098,220.386
			c0,0.446,0.13,0.765,0.391,0.955c0.26,0.189,0.583,0.284,0.969,0.284c0.375,0,0.729-0.087,1.062-0.262
			c0.333-0.174,0.688-0.432,1.062-0.775v-2.15c-0.651,0.083-1.201,0.184-1.648,0.3c-0.448,0.117-0.808,0.256-1.078,0.417
			c-0.271,0.161-0.465,0.346-0.582,0.554S30.098,220.142,30.098,220.386z"/>
		<path fill="#5B616B" d="M37.179,222.5v-7.773h1.086l0.125,1.094h0.05c0.375-0.367,0.767-0.675,1.175-0.92
			c0.409-0.246,0.886-0.369,1.433-0.369c0.828,0,1.431,0.257,1.811,0.77c0.379,0.514,0.569,1.27,0.569,2.27v4.93h-1.328v-4.767
			c0-0.736-0.117-1.269-0.351-1.595c-0.234-0.327-0.608-0.49-1.123-0.49c-0.405,0-0.761,0.101-1.068,0.302s-0.657,0.501-1.052,0.897
			v5.652H37.179z"/>
	</g>
	<g>
		<path fill="#5B616B" d="M101.778,222.5v-10.492h6.047v1.117h-4.719v3.555h4v1.117h-4v4.703H101.778z"/>
		<path fill="#5B616B" d="M108.781,218.625c0-0.641,0.099-1.213,0.297-1.719c0.198-0.505,0.459-0.934,0.785-1.285
			c0.325-0.352,0.696-0.621,1.113-0.809c0.417-0.188,0.849-0.281,1.297-0.281c0.491,0,0.931,0.086,1.32,0.258
			c0.389,0.172,0.715,0.418,0.979,0.738s0.464,0.705,0.603,1.152c0.138,0.448,0.208,0.948,0.208,1.5
			c0,0.287-0.016,0.526-0.047,0.719h-5.257c0.052,0.842,0.311,1.506,0.777,1.994c0.466,0.488,1.071,0.732,1.816,0.732
			c0.375,0,0.72-0.056,1.033-0.168c0.313-0.111,0.615-0.256,0.907-0.432l0.464,0.859c-0.345,0.215-0.725,0.404-1.14,0.566
			s-0.891,0.244-1.429,0.244c-0.521,0-1.008-0.094-1.461-0.281s-0.848-0.454-1.184-0.801c-0.336-0.346-0.601-0.771-0.793-1.273
			C108.877,219.838,108.781,219.266,108.781,218.625z M110.062,218.039h4.164c0-0.807-0.168-1.423-0.504-1.848
			c-0.336-0.424-0.809-0.637-1.418-0.637c-0.276,0-0.541,0.057-0.793,0.169c-0.253,0.112-0.48,0.274-0.684,0.483
			c-0.203,0.21-0.371,0.468-0.504,0.774S110.104,217.641,110.062,218.039z"/>
		<path fill="#5B616B" d="M117.097,222.5v-11.375h1.328v3.102l-0.031,1.406c0.354-0.312,0.737-0.573,1.15-0.785
			c0.413-0.211,0.838-0.316,1.275-0.316c0.5,0,0.941,0.094,1.327,0.281c0.385,0.188,0.708,0.455,0.968,0.802
			c0.26,0.347,0.456,0.763,0.589,1.248c0.133,0.484,0.199,1.026,0.199,1.626c0,0.661-0.09,1.253-0.27,1.775
			c-0.179,0.523-0.424,0.966-0.733,1.327c-0.31,0.362-0.667,0.636-1.073,0.823s-0.833,0.281-1.28,0.281
			c-0.365,0-0.742-0.084-1.13-0.252c-0.389-0.168-0.752-0.406-1.091-0.716h-0.058l-0.116,0.772H117.097z M118.425,220.769
			c0.343,0.296,0.681,0.505,1.014,0.627c0.333,0.122,0.629,0.183,0.889,0.183c0.317,0,0.611-0.071,0.881-0.214
			s0.504-0.344,0.702-0.603c0.198-0.26,0.353-0.582,0.464-0.966c0.112-0.384,0.168-0.814,0.168-1.292
			c0-0.425-0.037-0.812-0.109-1.163s-0.192-0.649-0.358-0.898c-0.167-0.249-0.38-0.444-0.64-0.584s-0.572-0.21-0.936-0.21
			c-0.629,0-1.32,0.353-2.074,1.059V220.769z"/>
	</g>
	<g>
		<path fill="#5B616B" d="M181.45,222.5v-10.492h1.57l2.031,5.625l0.766,2.148h0.07l0.734-2.148l2.016-5.625h1.57V222.5h-1.266
			v-5.773c0-0.469,0.018-0.986,0.055-1.555c0.036-0.567,0.075-1.086,0.117-1.555h-0.062l-0.844,2.336l-2.016,5.492h-0.758
			l-2.031-5.492l-0.828-2.336h-0.07c0.031,0.469,0.069,0.987,0.113,1.555c0.044,0.568,0.066,1.086,0.066,1.555v5.773H181.45z"/>
		<path fill="#5B616B" d="M192.375,220.488c0-0.854,0.381-1.506,1.145-1.959c0.763-0.451,1.975-0.77,3.637-0.951
			c0-0.248-0.023-0.49-0.07-0.728s-0.132-0.448-0.254-0.632c-0.123-0.186-0.285-0.334-0.488-0.447s-0.466-0.17-0.789-0.17
			c-0.458,0-0.882,0.087-1.27,0.261c-0.388,0.175-0.738,0.369-1.051,0.585l-0.523-0.923c0.364-0.231,0.807-0.454,1.328-0.67
			c0.521-0.216,1.096-0.323,1.727-0.323c0.953,0,1.645,0.291,2.074,0.871c0.43,0.581,0.645,1.358,0.645,2.332v4.766h-1.086
			l-0.133-0.928h-0.026c-0.376,0.307-0.779,0.57-1.209,0.791c-0.431,0.222-0.886,0.332-1.366,0.332
			c-0.662,0-1.208-0.192-1.641-0.577C192.591,221.733,192.375,221.189,192.375,220.488z M193.672,220.386
			c0,0.446,0.13,0.765,0.391,0.955c0.26,0.189,0.583,0.284,0.969,0.284c0.375,0,0.729-0.087,1.062-0.262
			c0.333-0.174,0.688-0.432,1.062-0.775v-2.15c-0.651,0.083-1.201,0.184-1.648,0.3c-0.448,0.117-0.808,0.256-1.078,0.417
			c-0.271,0.161-0.465,0.346-0.582,0.554S193.672,220.142,193.672,220.386z"/>
		<path fill="#5B616B" d="M200.753,222.5v-7.773h1.086l0.125,1.429h0.05c0.269-0.496,0.591-0.892,0.969-1.185
			c0.377-0.293,0.79-0.439,1.238-0.439c0.307,0,0.586,0.055,0.836,0.164l-0.258,1.172c-0.13-0.055-0.249-0.096-0.355-0.123
			c-0.107-0.027-0.238-0.041-0.395-0.041c-0.328,0-0.672,0.135-1.031,0.406c-0.359,0.27-0.672,0.742-0.938,1.416v4.975H200.753z"/>
	</g>
	<g>
		<path fill="#5B616B" d="M261.176,222.5l3.555-10.492h1.5l3.555,10.492h-1.422l-0.992-3.203h-3.828l-1.008,3.203H261.176z
			 M263.879,218.227h3.156l-0.5-1.602c-0.193-0.588-0.374-1.172-0.543-1.75c-0.169-0.578-0.34-1.172-0.512-1.781h-0.062
			c-0.162,0.609-0.327,1.205-0.496,1.785c-0.169,0.581-0.351,1.163-0.543,1.746L263.879,218.227z"/>
		<path fill="#5B616B" d="M270.953,225.781v-11.055h1.086l0.125,0.906h0.05c0.354-0.301,0.741-0.561,1.16-0.777
			c0.419-0.216,0.858-0.324,1.316-0.324c0.5,0,0.941,0.094,1.327,0.281c0.385,0.188,0.705,0.455,0.96,0.802s0.449,0.763,0.581,1.248
			c0.133,0.484,0.199,1.032,0.199,1.642c0,0.661-0.09,1.25-0.27,1.768c-0.179,0.519-0.424,0.958-0.733,1.319
			c-0.31,0.362-0.667,0.636-1.073,0.823s-0.833,0.281-1.28,0.281c-0.364,0-0.724-0.081-1.08-0.244
			c-0.356-0.162-0.714-0.383-1.072-0.66l0.031,1.361v2.629H270.953z M272.281,220.769c0.354,0.296,0.694,0.505,1.021,0.627
			c0.327,0.122,0.621,0.183,0.881,0.183c0.317,0,0.611-0.071,0.881-0.214s0.504-0.344,0.702-0.603
			c0.198-0.26,0.353-0.582,0.464-0.966c0.112-0.384,0.168-0.814,0.168-1.292c0-0.425-0.037-0.812-0.109-1.163
			s-0.192-0.649-0.358-0.898c-0.167-0.249-0.38-0.444-0.64-0.584s-0.572-0.21-0.936-0.21c-0.328,0-0.659,0.091-0.994,0.272
			c-0.335,0.182-0.695,0.443-1.08,0.786V220.769z"/>
		<path fill="#5B616B" d="M279.636,222.5v-7.773h1.086l0.125,1.429h0.05c0.269-0.496,0.591-0.892,0.969-1.185
			c0.377-0.293,0.79-0.439,1.238-0.439c0.307,0,0.586,0.055,0.836,0.164l-0.258,1.172c-0.13-0.055-0.249-0.096-0.355-0.123
			c-0.107-0.027-0.238-0.041-0.395-0.041c-0.328,0-0.672,0.135-1.031,0.406c-0.359,0.27-0.672,0.742-0.938,1.416v4.975H279.636z"/>
	</g>
	<g>
		<path fill="#5B616B" d="M340.489,222.5v-10.492h1.57l2.031,5.625l0.766,2.148h0.07l0.734-2.148l2.016-5.625h1.57V222.5h-1.266
			v-5.773c0-0.469,0.018-0.986,0.055-1.555c0.036-0.567,0.075-1.086,0.117-1.555h-0.062l-0.844,2.336l-2.016,5.492h-0.758
			l-2.031-5.492l-0.828-2.336h-0.07c0.031,0.469,0.069,0.987,0.113,1.555c0.044,0.568,0.066,1.086,0.066,1.555v5.773H340.489z"/>
		<path fill="#5B616B" d="M351.414,220.488c0-0.854,0.381-1.506,1.145-1.959c0.763-0.451,1.975-0.77,3.637-0.951
			c0-0.248-0.023-0.49-0.07-0.728s-0.132-0.448-0.254-0.632c-0.123-0.186-0.285-0.334-0.488-0.447s-0.467-0.17-0.789-0.17
			c-0.459,0-0.882,0.087-1.27,0.261c-0.388,0.175-0.738,0.369-1.051,0.585l-0.523-0.923c0.364-0.231,0.807-0.454,1.328-0.67
			c0.521-0.216,1.096-0.323,1.727-0.323c0.953,0,1.645,0.291,2.074,0.871c0.43,0.581,0.645,1.358,0.645,2.332v4.766h-1.086
			l-0.133-0.928h-0.025c-0.377,0.307-0.779,0.57-1.21,0.791c-0.431,0.222-0.886,0.332-1.366,0.332c-0.662,0-1.208-0.192-1.641-0.577
			C351.63,221.733,351.414,221.189,351.414,220.488z M352.711,220.386c0,0.446,0.13,0.765,0.391,0.955
			c0.26,0.189,0.583,0.284,0.969,0.284c0.375,0,0.729-0.087,1.062-0.262c0.333-0.174,0.688-0.432,1.062-0.775v-2.15
			c-0.651,0.083-1.201,0.184-1.648,0.3c-0.448,0.117-0.808,0.256-1.078,0.417c-0.271,0.161-0.465,0.346-0.582,0.554
			S352.711,220.142,352.711,220.386z"/>
		<path fill="#5B616B" d="M358.674,214.727h1.359l1.578,4.312c0.121,0.345,0.246,0.706,0.379,1.083
			c0.133,0.379,0.26,0.748,0.379,1.107l0.062-0.01c0.125-0.352,0.242-0.719,0.352-1.099s0.221-0.739,0.334-1.075l1.363-4.318h1.266
			l-2.93,8.409c-0.137,0.386-0.287,0.745-0.454,1.076s-0.368,0.617-0.603,0.856c-0.234,0.24-0.5,0.43-0.801,0.568
			c-0.299,0.138-0.646,0.207-1.043,0.207c-0.182,0-0.348-0.013-0.496-0.039c-0.148-0.025-0.285-0.063-0.41-0.115l0.25-1.033
			c0.084,0.021,0.18,0.045,0.289,0.074c0.109,0.028,0.211,0.043,0.305,0.043c0.449,0,0.814-0.158,1.098-0.474
			c0.285-0.315,0.504-0.713,0.66-1.192l0.18-0.58L358.674,214.727z"/>
	</g>
	<g>
		<path fill="#5B616B" d="M420.617,221.016l0.961-0.672c0.234,0.417,0.502,0.718,0.801,0.902c0.3,0.186,0.637,0.277,1.012,0.277
			c0.568,0,0.99-0.173,1.266-0.52c0.276-0.346,0.414-0.92,0.414-1.723v-7.273h1.328v7.406c0,0.448-0.055,0.871-0.166,1.27
			c-0.11,0.398-0.279,0.748-0.506,1.047c-0.227,0.3-0.523,0.535-0.893,0.707c-0.368,0.172-0.808,0.258-1.318,0.258
			C422.203,222.695,421.237,222.136,420.617,221.016z"/>
		<path fill="#5B616B" d="M428.816,219.648v-4.922h1.328v4.767c0,0.737,0.114,1.269,0.344,1.595c0.229,0.327,0.599,0.49,1.109,0.49
			c0.406,0,0.764-0.104,1.074-0.313c0.31-0.209,0.649-0.544,1.02-1.003v-5.535h1.328v7.773h-1.086l-0.117-1.196h-0.059
			c-0.365,0.421-0.747,0.757-1.146,1.011c-0.398,0.254-0.869,0.381-1.412,0.381c-0.834,0-1.439-0.256-1.816-0.77
			C429.005,221.413,428.816,220.654,428.816,219.648z"/>
		<path fill="#5B616B" d="M437.438,222.5v-7.773h1.086l0.125,1.094h0.05c0.375-0.367,0.767-0.675,1.175-0.92
			c0.409-0.246,0.887-0.369,1.434-0.369c0.828,0,1.432,0.257,1.811,0.77c0.38,0.514,0.57,1.27,0.57,2.27v4.93h-1.328v-4.767
			c0-0.736-0.117-1.269-0.352-1.595c-0.234-0.327-0.607-0.49-1.123-0.49c-0.404,0-0.761,0.101-1.067,0.302s-0.657,0.501-1.052,0.897
			v5.652H437.438z"/>
	</g>
	<g>
		<path fill="#5B616B" d="M502.953,221.016l0.961-0.672c0.234,0.417,0.502,0.718,0.801,0.902c0.3,0.186,0.637,0.277,1.012,0.277
			c0.568,0,0.99-0.173,1.266-0.52c0.276-0.346,0.414-0.92,0.414-1.723v-7.273h1.328v7.406c0,0.448-0.055,0.871-0.166,1.27
			c-0.11,0.398-0.279,0.748-0.506,1.047c-0.227,0.3-0.523,0.535-0.893,0.707c-0.368,0.172-0.808,0.258-1.318,0.258
			C504.539,222.695,503.573,222.136,502.953,221.016z"/>
		<path fill="#5B616B" d="M511.152,219.648v-4.922h1.328v4.767c0,0.737,0.114,1.269,0.344,1.595c0.229,0.327,0.599,0.49,1.109,0.49
			c0.406,0,0.764-0.104,1.074-0.313c0.31-0.209,0.649-0.544,1.02-1.003v-5.535h1.328v7.773h-1.086l-0.117-1.196h-0.059
			c-0.365,0.421-0.747,0.757-1.146,1.011c-0.398,0.254-0.869,0.381-1.412,0.381c-0.834,0-1.439-0.256-1.816-0.77
			C511.341,221.413,511.152,220.654,511.152,219.648z"/>
		<path fill="#5B616B" d="M519.773,220.93v-9.82h1.328v9.899c0,0.214,0.037,0.361,0.113,0.444c0.074,0.084,0.16,0.125,0.254,0.125
			c0.041,0,0.082,0,0.121,0s0.094-0.01,0.168-0.031l0.172,1.013c-0.084,0.042-0.184,0.076-0.301,0.1
			c-0.117,0.024-0.268,0.036-0.449,0.036c-0.506,0-0.867-0.15-1.082-0.449C519.881,221.947,519.773,221.508,519.773,220.93z"/>
	</g>
	<g>
		<path fill="#5B616B" d="M580.004,222.5l3.555-10.492h1.5l3.555,10.492h-1.422l-0.992-3.203h-3.828l-1.008,3.203H580.004z
			 M582.707,218.227h3.156l-0.5-1.602c-0.192-0.588-0.373-1.172-0.543-1.75c-0.169-0.578-0.34-1.172-0.512-1.781h-0.062
			c-0.161,0.609-0.326,1.205-0.496,1.785c-0.169,0.581-0.35,1.163-0.543,1.746L582.707,218.227z"/>
		<path fill="#5B616B" d="M589.672,219.648v-4.922H591v4.767c0,0.737,0.114,1.269,0.344,1.595c0.229,0.327,0.599,0.49,1.109,0.49
			c0.406,0,0.764-0.104,1.074-0.313c0.31-0.209,0.649-0.544,1.02-1.003v-5.535h1.328v7.773h-1.086l-0.117-1.196h-0.059
			c-0.365,0.421-0.747,0.757-1.146,1.011c-0.398,0.254-0.869,0.381-1.412,0.381c-0.834,0-1.439-0.256-1.816-0.77
			C589.86,221.413,589.672,220.654,589.672,219.648z"/>
		<path fill="#5B616B" d="M597.699,223.984c0-0.327,0.1-0.64,0.301-0.938c0.201-0.298,0.479-0.569,0.829-0.813v-0.062
			c-0.186-0.12-0.343-0.284-0.47-0.491c-0.128-0.207-0.191-0.468-0.191-0.782c0-0.33,0.086-0.618,0.26-0.864
			c0.174-0.245,0.359-0.439,0.556-0.58l0.023-0.061c-0.259-0.215-0.493-0.5-0.703-0.857c-0.21-0.356-0.315-0.772-0.315-1.247
			c0-0.426,0.076-0.809,0.23-1.148c0.153-0.341,0.364-0.63,0.633-0.868c0.268-0.239,0.58-0.422,0.938-0.549
			c0.357-0.128,0.733-0.191,1.129-0.191c0.213,0,0.411,0.019,0.596,0.055c0.184,0.037,0.35,0.084,0.5,0.141h2.701v0.992h-1.602
			c0.182,0.184,0.334,0.413,0.457,0.69c0.121,0.277,0.184,0.581,0.184,0.911c0,0.414-0.074,0.788-0.223,1.122
			s-0.35,0.615-0.604,0.843c-0.254,0.229-0.555,0.406-0.899,0.536s-0.716,0.194-1.11,0.194c-0.194,0-0.395-0.023-0.6-0.072
			c-0.205-0.048-0.399-0.113-0.584-0.193c-0.142,0.121-0.26,0.254-0.354,0.398s-0.142,0.324-0.142,0.541
			c0,0.251,0.096,0.458,0.289,0.621c0.193,0.162,0.557,0.244,1.09,0.244h1.506c0.9,0,1.576,0.146,2.029,0.438
			c0.453,0.292,0.68,0.761,0.68,1.406c0,0.364-0.092,0.708-0.271,1.031c-0.182,0.322-0.441,0.606-0.781,0.852
			c-0.339,0.244-0.749,0.439-1.23,0.586c-0.481,0.146-1.025,0.219-1.631,0.219c-0.479,0-0.916-0.046-1.312-0.137
			c-0.396-0.092-0.734-0.229-1.016-0.41c-0.281-0.183-0.5-0.401-0.656-0.656C597.777,224.627,597.699,224.328,597.699,223.984z
			 M598.855,223.812c0,0.416,0.199,0.747,0.598,0.992c0.398,0.244,0.949,0.367,1.652,0.367c0.373,0,0.712-0.046,1.016-0.137
			c0.304-0.092,0.562-0.209,0.775-0.352c0.213-0.144,0.377-0.312,0.494-0.504c0.117-0.193,0.176-0.391,0.176-0.594
			c0-0.365-0.135-0.616-0.402-0.754c-0.268-0.139-0.656-0.207-1.166-0.207h-1.342c-0.15,0-0.312-0.008-0.486-0.023
			c-0.175-0.016-0.348-0.049-0.52-0.1c-0.275,0.203-0.477,0.416-0.604,0.64S598.855,223.589,598.855,223.812z M599.254,217.288
			c0,0.288,0.043,0.548,0.129,0.781s0.206,0.429,0.359,0.589c0.154,0.159,0.33,0.282,0.529,0.369
			c0.198,0.086,0.41,0.129,0.635,0.129s0.436-0.043,0.634-0.129c0.198-0.087,0.374-0.21,0.528-0.369
			c0.154-0.16,0.274-0.355,0.36-0.585c0.087-0.23,0.13-0.492,0.13-0.785c0-0.575-0.161-1.019-0.482-1.329
			c-0.32-0.312-0.711-0.467-1.17-0.467c-0.46,0-0.85,0.156-1.172,0.471C599.414,216.276,599.254,216.719,599.254,217.288z"/>
	</g>
	<g>
		<path fill="#5B616B" d="M660.688,221.141l0.797-0.929c0.374,0.396,0.813,0.713,1.32,0.952c0.507,0.24,1.029,0.359,1.569,0.359
			c0.694,0,1.234-0.157,1.621-0.473c0.385-0.314,0.578-0.727,0.578-1.236c0-0.266-0.045-0.492-0.137-0.68s-0.215-0.348-0.371-0.479
			c-0.157-0.133-0.342-0.253-0.553-0.359s-0.441-0.22-0.692-0.339l-1.503-0.656c-0.245-0.104-0.494-0.23-0.748-0.379
			c-0.252-0.148-0.479-0.328-0.682-0.542c-0.201-0.214-0.365-0.468-0.491-0.761c-0.126-0.295-0.19-0.634-0.19-1.02
			c0-0.396,0.082-0.766,0.246-1.107c0.163-0.342,0.391-0.639,0.685-0.889s0.638-0.445,1.035-0.584
			c0.397-0.138,0.835-0.207,1.312-0.207c0.631,0,1.215,0.121,1.748,0.361c0.535,0.241,0.99,0.556,1.365,0.943l-0.719,0.858
			c-0.318-0.307-0.672-0.549-1.064-0.726c-0.391-0.178-0.834-0.266-1.33-0.266c-0.59,0-1.062,0.137-1.416,0.41
			c-0.355,0.273-0.533,0.648-0.533,1.127c0,0.256,0.051,0.472,0.148,0.648c0.1,0.177,0.236,0.332,0.408,0.465
			s0.359,0.25,0.562,0.351c0.204,0.102,0.412,0.194,0.627,0.277l1.487,0.64c0.298,0.131,0.58,0.277,0.849,0.441
			c0.268,0.164,0.498,0.355,0.691,0.574c0.193,0.218,0.346,0.475,0.457,0.769c0.112,0.294,0.168,0.634,0.168,1.019
			c0,0.416-0.083,0.805-0.25,1.167c-0.166,0.362-0.405,0.679-0.715,0.948c-0.311,0.271-0.684,0.484-1.119,0.641
			s-0.932,0.234-1.49,0.234c-0.732,0-1.412-0.139-2.041-0.418C661.69,221.999,661.146,221.62,660.688,221.141z"/>
		<path fill="#5B616B" d="M669.102,218.625c0-0.641,0.099-1.213,0.297-1.719c0.197-0.505,0.459-0.934,0.785-1.285
			c0.325-0.352,0.696-0.621,1.113-0.809c0.416-0.188,0.849-0.281,1.297-0.281c0.49,0,0.931,0.086,1.32,0.258
			c0.389,0.172,0.715,0.418,0.979,0.738s0.465,0.705,0.604,1.152c0.138,0.448,0.207,0.948,0.207,1.5
			c0,0.287-0.016,0.526-0.047,0.719h-5.258c0.052,0.842,0.311,1.506,0.777,1.994c0.466,0.488,1.071,0.732,1.816,0.732
			c0.375,0,0.72-0.056,1.033-0.168c0.312-0.111,0.615-0.256,0.906-0.432l0.465,0.859c-0.345,0.215-0.725,0.404-1.14,0.566
			s-0.892,0.244-1.429,0.244c-0.521,0-1.008-0.094-1.461-0.281s-0.848-0.454-1.184-0.801c-0.336-0.346-0.601-0.771-0.793-1.273
			C669.197,219.838,669.102,219.266,669.102,218.625z M670.383,218.039h4.164c0-0.807-0.168-1.423-0.504-1.848
			c-0.336-0.424-0.809-0.637-1.418-0.637c-0.276,0-0.541,0.057-0.793,0.169c-0.253,0.112-0.48,0.274-0.684,0.483
			c-0.203,0.21-0.371,0.468-0.504,0.774S670.424,217.641,670.383,218.039z"/>
		<path fill="#5B616B" d="M677.418,225.781v-11.055h1.086l0.125,0.906h0.05c0.354-0.301,0.741-0.561,1.16-0.777
			c0.419-0.216,0.858-0.324,1.316-0.324c0.499,0,0.941,0.094,1.327,0.281c0.385,0.188,0.705,0.455,0.959,0.802
			c0.256,0.347,0.449,0.763,0.582,1.248c0.133,0.484,0.199,1.032,0.199,1.642c0,0.661-0.09,1.25-0.27,1.768
			c-0.18,0.519-0.424,0.958-0.734,1.319c-0.309,0.362-0.666,0.636-1.072,0.823s-0.832,0.281-1.279,0.281
			c-0.365,0-0.725-0.081-1.08-0.244c-0.357-0.162-0.715-0.383-1.072-0.66l0.031,1.361v2.629H677.418z M678.746,220.769
			c0.354,0.296,0.693,0.505,1.021,0.627c0.326,0.122,0.621,0.183,0.881,0.183c0.316,0,0.611-0.071,0.881-0.214
			s0.504-0.344,0.701-0.603c0.198-0.26,0.354-0.582,0.465-0.966s0.168-0.814,0.168-1.292c0-0.425-0.037-0.812-0.109-1.163
			c-0.073-0.351-0.193-0.649-0.359-0.898s-0.379-0.444-0.639-0.584s-0.572-0.21-0.936-0.21c-0.328,0-0.66,0.091-0.994,0.272
			c-0.336,0.182-0.695,0.443-1.08,0.786V220.769z"/>
	</g>
</g>
</svg>
