<?xml version="1.0" encoding="utf-8"?>
<!-- Generator: Adobe Illustrator 15.1.0, SVG Export Plug-In . SVG Version: 6.00 Build 0)  -->
<!DOCTYPE svg PUBLIC "-//W3C//DTD SVG 1.1//EN" "http://www.w3.org/Graphics/SVG/1.1/DTD/svg11.dtd">
<svg version="1.1" id="Layer_1" xmlns="http://www.w3.org/2000/svg" xmlns:xlink="http://www.w3.org/1999/xlink" x="0px" y="0px"
	 width="789.416px" height="124px" viewBox="0 0 789.416 124" enable-background="new 0 0 789.416 124" xml:space="preserve">
<g>
	<g>
		<path fill="#112E51" d="M255.072,29.446L256.987,0h101.746l-0.159,29.047l-9.258,1.039l-5.279-16.759l-24.486-1.915v100.464
			l19.232,2.957v9.097h-60.889v-9.097l18.993-2.878V11.412l-24.978,1.915l-5.507,15.641L255.072,29.446z"/>
		<path fill="#112E51" d="M367.671,123.93v-9.097l14.764-2.957V12.451l-14.685-1.678V0h51.791v10.773l-14.125,1.758v99.265
			l14.923,3.037v9.097H367.671z"/>
		<path fill="#112E51" d="M429.516,29.446L431.432,0h101.746l-0.16,29.047l-9.258,1.039l-5.279-16.759l-24.484-1.915v100.464
			l19.23,2.957v9.097h-60.889v-9.097l18.993-2.878V11.412l-24.978,1.915l-5.506,15.641L429.516,29.446z"/>
		<path fill="#112E51" d="M536.369,123.93v-9.177l10.932-2.884L587.601,0h20.907l38.863,111.869l12.369,2.964v9.097h-49.157v-9.097
			l11.731-3.124l-5.507-18.023h-45.485l-5.666,17.863l12.528,3.204v9.177H536.369z M575.312,81.237h37.586l-11.652-37.586
			l-6.623-22.823L575.312,81.237z"/>
		<path fill="#112E51" d="M667.162,123.93v-9.097l13.008-3.124V13.493l-12.449-1.603V0h35.271l50.354,85.328l8.938,20.854V13.654
			l-13.887-1.923V0h41.018v11.73l-11.971,1.683V123.93h-24.816l-47.481-77.555l-9.577-22.146v87.32l15.881,3.284v9.097H667.162z"/>
	</g>
	<g>
		<rect x="115" fill="#112E51" width="122" height="124"/>
		<rect x="84" y="106" fill="#CD2026" width="153" height="18"/>
		<rect x="92" fill="#CD2026" width="145" height="17"/>
		<rect x="54" fill="#CD2026" width="28" height="17"/>
		<rect x="23" fill="#CD2026" width="21" height="17"/>
		<rect fill="#CD2026" width="12" height="17"/>
		<rect x="75" y="35" fill="#CD2026" width="162" height="17"/>
		<rect x="50" y="35" fill="#CD2026" width="15" height="17"/>
		<rect x="92" y="70" fill="#CD2026" width="145" height="17"/>
		<rect x="58" y="70" fill="#CD2026" width="24" height="17"/>
		<rect x="35" y="70" fill="#CD2026" width="15" height="17"/>
		<polygon fill="#FFFFFF" points="175.617,30.743 185.731,51.236 208.346,54.522 191.981,70.473 195.845,92.996 175.617,82.363 
			155.391,92.996 159.254,70.473 142.89,54.522 165.504,51.236 		"/>
	</g>
</g>
</svg>
